<svg width="1792" height="1792" xmlns="http://www.w3.org/2000/svg" style=""><rect id="backgroundrect" width="100%" height="100%" x="0" y="0" fill="none" stroke="none"/><g class="currentLayer" style=""><title>Layer 1</title><path d="M704 1536q0 52-38 90t-90 38-90-38-38-90 38-90 90-38 90 38 38 90zm896 0q0 52-38 90t-90 38-90-38-38-90 38-90 90-38 90 38 38 90zm128-1088v512q0 24-16.5 42.5t-40.5 21.5l-1044 122q13 60 13 70 0 16-24 64h920q26 0 45 19t19 45-19 45-45 19h-1024q-26 0-45-19t-19-45q0-11 8-31.5t16-36 21.5-40 15.5-29.5l-177-823h-204q-26 0-45-19t-19-45 19-45 45-19h256q16 0 28.5 6.5t19.5 15.5 13 24.5 8 26 5.5 29.5 4.5 26h1201q26 0 45 19t19 45z" id="svg_1" class="" fill="#ffffff" fill-opacity="1"/><path fill="#ffffff" fill-opacity="1" stroke="#ffffff" stroke-opacity="1" stroke-width="1" stroke-dasharray="none" stroke-linejoin="round" stroke-linecap="butt" stroke-dashoffset="" fill-rule="nonzero" opacity="1" marker-start="" marker-mid="" marker-end="" d="M806.8571434020996,1197.1428565979004 C806.8571434020996,1165.6511573791504 834.3792381286621,1140.1428565979004 868.3571434020996,1140.1428565979004 C902.3350486755371,1140.1428565979004 929.8571434020996,1165.6511573791504 929.8571434020996,1197.1428565979004 C929.8571434020996,1228.6345558166504 902.3350486755371,1254.1428565979004 868.3571434020996,1254.1428565979004 C834.3792381286621,1254.1428565979004 806.8571434020996,1228.6345558166504 806.8571434020996,1197.1428565979004 z" id="svg_2" class=""/><path fill="#ffffff" fill-opacity="1" stroke="#ffffff" stroke-opacity="1" stroke-width="1" stroke-dasharray="none" stroke-linejoin="round" stroke-linecap="butt" stroke-dashoffset="" fill-rule="nonzero" opacity="1" marker-start="" marker-mid="" marker-end="" d="M1003.9999847412109,1197.142822265625 C1003.9999847412109,1165.651123046875 1031.5220794677734,1140.142822265625 1065.499984741211,1140.142822265625 C1099.4778900146484,1140.142822265625 1126.999984741211,1165.651123046875 1126.999984741211,1197.142822265625 C1126.999984741211,1228.634521484375 1099.4778900146484,1254.142822265625 1065.499984741211,1254.142822265625 C1031.5220794677734,1254.142822265625 1003.9999847412109,1228.634521484375 1003.9999847412109,1197.142822265625 z" class="" id="svg_4"/></g></svg>